<?xml version="1.0" encoding="UTF-8" standalone="no"?>
<svg width="100px" height="40px" viewBox="0 0 100 40" version="1.1" xmlns="http://www.w3.org/2000/svg" xmlns:xlink="http://www.w3.org/1999/xlink">
    <defs>
        <linearGradient x1="0%" y1="0%" x2="100%" y2="100%" id="linearGradient-1">
            <stop stop-color="#4285F4" offset="0%"></stop>
            <stop stop-color="#1967D2" offset="100%"></stop>
        </linearGradient>
        <linearGradient x1="0%" y1="0%" x2="100%" y2="100%" id="linearGradient-2">
            <stop stop-color="#FA7B17" offset="0%"></stop>
            <stop stop-color="#E37400" offset="100%"></stop>
        </linearGradient>
    </defs>
    <g id="AI-Notebook-Logo" stroke="none" stroke-width="1" fill="none" fill-rule="evenodd">
        <g id="logo" transform="translate(8.000000, 5.000000)">
            <path d="M22,0 C34.1502645,0 44,9.84973552 44,22 C44,34.1502645 34.1502645,44 22,44 C9.84973552,44 0,34.1502645 0,22 C0,9.84973552 9.84973552,0 22,0 Z" id="Circle-Background" fill="#F8F9FA" transform="translate(22.000000, 22.000000) scale(0.682) translate(-22.000000, -22.000000)"></path>
            <path d="M16,4 C22.627417,4 28,9.372583 28,16 C28,22.627417 22.627417,28 16,28 C9.372583,28 4,22.627417 4,16 C4,9.372583 9.372583,4 16,4 Z" id="Inner-Circle" fill="url(#linearGradient-1)" transform="translate(16.000000, 16.000000) scale(1.000000) translate(-16.000000, -16.000000)"></path>
            <path d="M52,8 L58,8 C61.3137085,8 64,10.6862915 64,14 L64,20 C64,23.3137085 61.3137085,26 58,26 L52,26 C48.6862915,26 46,23.3137085 46,20 L46,14 C46,10.6862915 48.6862915,8 52,8 Z" id="Square" fill="url(#linearGradient-2)" transform="translate(55.000000, 17.000000) scale(0.750000) translate(-55.000000, -17.000000)"></path>
            <text id="AI" font-family="Arial-BoldMT, Arial" font-size="16" font-weight="bold" fill="#FFFFFF">
                <tspan x="8" y="21">AI</tspan>
            </text>
            <text id="NB" font-family="Arial-BoldMT, Arial" font-size="16" font-weight="bold" fill="#FFFFFF">
                <tspan x="49" y="21">NB</tspan>
            </text>
        </g>
    </g>
</svg>